<svg width="19" height="21" viewBox="0 0 19 21" fill="none" xmlns="http://www.w3.org/2000/svg">
<g clip-path="url(#clip0_0_308)">
<path d="M9.67599 17.6399L13.9336 13.0199C14.7756 12.1062 15.349 10.9421 15.5813 9.67474C15.8135 8.40742 15.6943 7.09382 15.2385 5.90004C14.7828 4.70627 14.0111 3.68595 13.021 2.96808C12.0308 2.25022 10.8668 1.86706 9.67599 1.86706C8.48519 1.86706 7.32114 2.25022 6.33102 2.96808C5.34089 3.68595 4.56918 4.70627 4.11345 5.90004C3.65773 7.09382 3.53846 8.40742 3.77072 9.67474C4.00299 10.9421 4.57637 12.1062 5.41835 13.0199L9.67599 17.6399ZM9.67599 20.2794L4.20212 14.3397C3.11951 13.1649 2.38224 11.6682 2.08356 10.0387C1.78487 8.40928 1.93817 6.72033 2.52409 5.18543C3.11 3.65054 4.10221 2.33865 5.37524 1.41565C6.64826 0.492649 8.14494 0 9.67599 0C11.207 0 12.7037 0.492649 13.9767 1.41565C15.2498 2.33865 16.242 3.65054 16.8279 5.18543C17.4138 6.72033 17.5671 8.40928 17.2684 10.0387C16.9697 11.6682 16.2325 13.1649 15.1499 14.3397L9.67599 20.2794V20.2794ZM9.67599 10.2666C10.1322 10.2666 10.5698 10.0699 10.8924 9.71986C11.215 9.36979 11.3963 8.895 11.3963 8.39992C11.3963 7.90485 11.215 7.43006 10.8924 7.07999C10.5698 6.72992 10.1322 6.53326 9.67599 6.53326C9.21975 6.53326 8.78219 6.72992 8.45958 7.07999C8.13697 7.43006 7.95573 7.90485 7.95573 8.39992C7.95573 8.895 8.13697 9.36979 8.45958 9.71986C8.78219 10.0699 9.21975 10.2666 9.67599 10.2666ZM9.67599 12.1333C8.76351 12.1333 7.8884 11.7399 7.24317 11.0398C6.59795 10.3397 6.23547 9.39007 6.23547 8.39992C6.23547 7.40978 6.59795 6.4602 7.24317 5.76006C7.8884 5.05992 8.76351 4.66659 9.67599 4.66659C10.5885 4.66659 11.4636 5.05992 12.1088 5.76006C12.754 6.4602 13.1165 7.40978 13.1165 8.39992C13.1165 9.39007 12.754 10.3397 12.1088 11.0398C11.4636 11.7399 10.5885 12.1333 9.67599 12.1333Z" fill="white"/>
<line x1="1.84302" y1="20" x2="17.5097" y2="20" stroke="white" stroke-width="2"/>
</g>
<defs>
<clipPath id="clip0_0_308">
<rect width="18.4314" height="21" fill="white"/>
</clipPath>
</defs>
</svg>
