<svg width="22" height="20" viewBox="0 0 22 20" fill="none" xmlns="http://www.w3.org/2000/svg">
<path d="M2 17.8931V4.59308C1.99994 4.38781 2.06305 4.18749 2.18077 4.01932C2.29849 3.85115 2.4651 3.72329 2.658 3.65308L12.329 0.137084C12.4045 0.10959 12.4856 0.100717 12.5653 0.111217C12.645 0.121718 12.721 0.151282 12.7869 0.197404C12.8527 0.243526 12.9065 0.304844 12.9436 0.376162C12.9807 0.447479 13 0.526692 13 0.607084V5.56008L19.316 7.66508C19.5152 7.73143 19.6885 7.8588 19.8112 8.02913C19.934 8.19946 20.0001 8.40412 20 8.61408V17.8931H22V19.8931H0V17.8931H2ZM4 17.8931H11V2.74808L4 5.29408V17.8931ZM18 17.8931V9.33508L13 7.66808V17.8931H18Z" fill="#60517c"/>
</svg>
